# xmcd
#
# Track frame offsets: 
#        150
#        12608
#        25762
#        40283
#        54800
#        68540
#        79450
#        91885
#        102683
#        111298
#        122143
#        137819
#        147261
#        159374
#        169225
#        178743
#        190366
#        210123
#        225784
#        238192
#
# Disc length: 3285 seconds
#
# Revision: 0
# Processed by: cddbd v1.5.2PL0 Copyright (c) Steve Scherf et al.
# Submitted via: ExactAudioCopy v1.0b6
#
DISCID=0e0cd314
DTITLE=Various Artist - Simply Country CD1
DYEAR=2015
DGENRE=Country
TTITLE0=Johnny Cash - I Walk The Line
TTITLE1=Kenny Rogers - Ruby, Don't Take Your Love To Town
TTITLE2=Loretta Lynn - Coal Miner's Daughter [Live]
TTITLE3=Jeannie C. Riley - Harper Valley P.T.A.
TTITLE4=Hank Williams - Ramblin' Man
TTITLE5=Dave Dudley - A Tombstone Every Mile
TTITLE6=Randy Travis - Dreamin'
TTITLE7=Johnny Cash - I Heard That Lonesome Whistle Blow
TTITLE8=Porter Wagoner - I See Love
TTITLE9=Dolly Parton - It Wasn't God Who Made Honky Tonk Angels
TTITLE10=Kenny Rogers - Tulsa Turnaround
TTITLE11=Charley Pride - Kiss An Angel Good Morning [Live]
TTITLE12=Carl Smith - Kisses Don't Lie
TTITLE13=John Anderson - Mississippi Rain Storm
TTITLE14=Dave Dudley - Six Days On The Road
TTITLE15=Delbert McClinton - These Boots Are Made For Walking
TTITLE16=David Allan Coe - A Satisfied Mind
TTITLE17=Jimmy Dale and The Flatlanders - Jole Blon
TTITLE18=Jerry Lee Lewis - Crazy Arms
TTITLE19=George Jones - Heartbreak Hotel
EXTD=
EXTT0=
EXTT1=
EXTT2=
EXTT3=
EXTT4=
EXTT5=
EXTT6=
EXTT7=
EXTT8=
EXTT9=
EXTT10=
EXTT11=
EXTT12=
EXTT13=
EXTT14=
EXTT15=
EXTT16=
EXTT17=
EXTT18=
EXTT19=
PLAYORDER=
